<?xml version="1.0" encoding="UTF-8" standalone="no"?><!DOCTYPE svg PUBLIC "-//W3C//DTD SVG 1.1//EN" "http://www.w3.org/Graphics/SVG/1.1/DTD/svg11.dtd"><svg width="100%" height="100%" viewBox="0 0 816 250" version="1.1" xmlns="http://www.w3.org/2000/svg" xmlns:xlink="http://www.w3.org/1999/xlink" xml:space="preserve" xmlns:serif="http://www.serif.com/" style="fill-rule:evenodd;clip-rule:evenodd;stroke-linejoin:round;stroke-miterlimit:1.41421;"><rect id="ArtBoard1" x="0" y="0" width="815.931" height="249.059" style="fill:none;"/><clipPath id="_clip1"><rect id="ArtBoard11" serif:id="ArtBoard1" x="0" y="0" width="815.931" height="249.059"/></clipPath><g clip-path="url(#_clip1)"><path d="M213.98,0l1.871,0l0,1.871c-7.094,1.793 -21.554,7.016 -43.381,15.668l0,0.936l1.871,0c7.328,-1.247 11.615,-1.871 12.863,-1.871l0.935,1.871c-21.437,9.198 -33.13,13.797 -35.079,13.797l0,1.871l2.807,0c1.481,-1.247 6.392,-2.806 14.733,-4.677l0,0.936c-0.78,0.935 -14.305,7.405 -40.575,19.41c-19.488,9.354 -30.869,15.824 -34.143,19.41l0,0.935c0.234,1.56 1.793,3.08 4.677,4.561c18.085,-3.664 31.298,-5.496 39.639,-5.496l6.431,0c5.223,0 9.238,0.585 12.044,1.754c1.091,-0.546 2.299,-0.819 3.625,-0.819l3.741,0c0,3.041 4.6,4.561 13.798,4.561l0.935,1.871c-1.169,0.623 -2.104,0.935 -2.806,0.935c0,1.247 3.391,3.703 10.173,7.367l1.871,6.431l0,6.431c-2.417,9.12 -11.966,20.813 -28.648,35.078c-1.247,0 -12.316,9.238 -33.208,27.713c-21.982,20.891 -36.715,33.792 -44.199,38.703l0,-0.935l2.806,-3.742l0,-0.818l-15.785,11.926l0,1.871c3.742,-3.118 6.509,-4.677 8.302,-4.677c-20.19,16.604 -37.69,29.232 -52.501,37.885l-1.871,-0.935c-5.223,3.43 -10.446,6.197 -15.669,8.302c-5.378,-2.651 -8.146,-4.483 -8.302,-5.496c13.486,-10.836 20.229,-16.682 20.229,-17.539l0,-2.807l-0.818,0c-3.196,0 -9.355,3.703 -18.475,11.109c-1.247,0 -1.871,-0.624 -1.871,-1.871c24.477,-19.566 55.541,-43.537 93.193,-71.912c23.151,-19.488 41.899,-36.092 56.242,-49.812l1.871,-8.302l0,-1.87c0,-1.326 -2.182,-2.846 -6.548,-4.561c-14.031,0 -32.467,4.288 -55.307,12.863l-0.936,0l0,-1.871c2.573,0 5.34,-1.52 8.302,-4.561l0,-0.935c-7.873,1.247 -13.096,1.871 -15.668,1.871c-1.715,-0.078 -3.235,-1.949 -4.56,-5.613c-4.366,0 -9.277,-3.352 -14.733,-10.056c0,-20.345 16.292,-38.196 48.876,-53.553c1.871,-2.573 15.396,-9.354 40.574,-20.346c25.959,-8.575 46.85,-12.862 62.674,-12.862Zm-99.623,52.618l1.871,0c1.091,0 13.096,-5.535 36.014,-16.604l0,-1.871c-4.366,0 -16.994,6.159 -37.885,18.475Zm-31.337,21.164l0,2.807l2.806,0l0,-0.936c0,-1.247 -0.624,-1.871 -1.871,-1.871l-0.935,0Zm-8.302,7.367l0,3.742c0.234,1.247 1.754,2.455 4.56,3.624l0,-0.935c-1.793,-2.65 -2.689,-4.794 -2.689,-6.431l-1.871,0Zm8.302,0l0,0.935c3.508,4.288 7.522,6.431 12.043,6.431l0.819,0l0,-1.754c-5.925,-3.741 -9.588,-5.612 -10.991,-5.612l-1.871,0Zm85.826,2.806l-0.936,1.871c1.481,0 5.457,2.144 11.927,6.431l0,-0.935c0,-4.911 -3.391,-7.367 -10.173,-7.367l-0.818,0Zm-3.742,5.496l0,0.935c1.403,0 5.418,2.768 12.044,8.302l0.818,0l0,-1.871c-1.403,-3.04 -5.379,-5.495 -11.927,-7.366l-0.935,0Zm-2.806,10.173l0,1.87c0.233,1.248 0.857,1.871 1.87,1.871l0.936,0l0,-1.871c0,-1.247 -0.624,-1.87 -1.871,-1.87l-0.935,0Zm9.237,0.935l0,1.871c0.234,1.169 0.858,1.754 1.871,1.754l0,-1.754c0,-1.247 -0.624,-1.871 -1.871,-1.871Zm-146.629,116.228l0,1.87l4.56,0c17.929,-12.394 30.558,-21.943 37.885,-28.647l-0.935,0c-0.858,0 -14.383,8.925 -40.575,26.777l-0.935,0Zm-15.669,23.035c0.156,1.247 0.78,1.87 1.871,1.871c7.094,-1.871 28.921,-17.852 65.481,-47.941l-1.871,0c-14.655,9.666 -33.091,22.879 -55.308,39.639c-5.223,4.287 -8.614,6.431 -10.173,6.431Zm55.308,-28.648l0.935,0c2.807,-1.169 4.366,-2.378 4.677,-3.625l-0.935,0c-2.806,1.169 -4.365,2.378 -4.677,3.625Z" style="fill:#fff;fill-rule:nonzero;"/><path d="M259.7,24.204l1.52,0l0,2.222l0.701,0l2.222,-1.403l0.701,0l0,0.701c-0.935,1.637 -1.403,3.119 -1.403,4.444l0.702,1.52l1.52,-0.819l1.403,0l0,1.52l1.52,0l0,-0.701c0,-1.169 -0.234,-2.183 -0.701,-3.04c0.935,-2.261 1.909,-3.469 2.923,-3.625l0,0.701c0,1.092 -0.234,2.066 -0.702,2.924c0.468,0.857 0.702,1.871 0.702,3.04l-3.742,5.846c0.546,0.936 0.819,1.676 0.819,2.222l-14.149,28.881l-1.403,0c0,-0.857 0.974,-3.585 2.923,-8.185l0,-0.701l-0.701,0c-4.054,7.016 -9.004,16.643 -14.85,28.881l0,0.702c2.494,-1.871 5.223,-6.821 8.185,-14.85c2.027,-2.962 3.235,-4.443 3.625,-4.443l0,0.818c0,1.169 -2.924,7.561 -8.77,19.176l0,0.819l0.701,0c2.807,-6.158 5.262,-10.134 7.367,-11.927l0,1.52c-3.43,5.769 -5.145,9.471 -5.145,11.109l0,1.52c1.091,0 2.066,0.233 2.923,0.701l1.52,-0.701l1.404,0.701c0.311,0 1.325,-0.234 3.04,-0.701c2.65,0.467 4.872,0.701 6.665,0.701c0.467,0 0.701,-0.234 0.701,-0.701l3.742,0.701l2.923,0c6.86,0 16.214,0.234 28.063,0.702c4.132,0 6.86,-2.456 8.185,-7.367c7.172,-15.279 13.837,-27.868 19.995,-37.768l0,-1.403l1.403,0l0,1.403l0.819,0c4.911,-8.419 10.056,-15.785 15.434,-22.1l0,1.404l-2.221,3.741l0,0.702l6.665,-6.665l2.221,0c0,1.949 -1.481,5.184 -4.443,9.705l0,1.403l1.52,0c0,-1.481 0.507,-2.221 1.52,-2.221c0.468,0.935 0.702,1.676 0.702,2.221c0,0.312 -1.247,3.508 -3.742,9.588l3.04,-2.221l1.403,0.818c-12.316,23.152 -20.423,40.887 -24.321,53.203c-10.368,23.62 -25.919,61.583 -46.655,113.889c-0.623,0 -2.572,3.703 -5.846,11.108c-2.65,0 -6.86,6.159 -12.628,18.475l-1.52,0.702l-0.702,0l0,-0.702l2.923,-5.145c0,-1.013 -0.468,-1.52 -1.403,-1.52l-0.818,0c-4.288,5.769 -7.952,10.212 -10.992,13.33c-0.779,0 -1.793,-0.974 -3.04,-2.923c7.016,-13.018 15.396,-34.494 25.14,-64.428l0,-0.702l-0.702,0c-0.779,3.82 -2.027,6.275 -3.742,7.367l0,-0.702c9.9,-23.619 18.553,-47.044 25.959,-70.274c-5.457,-0.468 -8.185,-0.936 -8.185,-1.403l-1.52,0.701l-2.924,0c-4.677,0 -10.328,0.234 -16.954,0.702c-2.885,-0.858 -10.29,-1.598 -22.217,-2.222c-4.833,0 -8.302,2.729 -10.407,8.185c-17.305,37.651 -29.622,60.336 -36.949,68.053c-3.586,0 -6.782,3.937 -9.588,11.81c-2.807,3.897 -4.522,5.846 -5.145,5.846c0,-0.467 -0.273,-0.701 -0.819,-0.701c7.951,-12.395 11.927,-19.527 11.927,-21.398l-0.818,-3.742l-1.404,0c-5.378,11.381 -8.341,17.072 -8.886,17.072c-1.014,0 -1.52,-0.741 -1.52,-2.222c1.013,-7.951 1.754,-11.927 2.221,-11.927l-0.701,-1.403c2.338,-7.25 12.433,-30.168 30.284,-68.754c0,-0.546 -0.233,-0.819 -0.701,-0.819c-1.014,-0.468 -1.754,-0.701 -2.222,-0.701c-3.508,0 -10.173,0.233 -19.995,0.701l-6.665,-0.701c-0.467,0 -0.701,0.233 -0.701,0.701c-11.849,-1.481 -20.502,-2.221 -25.958,-2.221l-0.702,-1.404c1.481,0 2.222,-0.506 2.222,-1.52l3.741,0.702l5.145,0c7.328,0 17.189,-0.234 29.583,-0.702l0,-0.701c-16.915,-1.014 -28.764,-2.027 -35.546,-3.04l-2.923,0l-0.702,-3.625l4.443,0l0,0.701l-0.818,1.52l3.04,0l-0.819,-1.52l1.521,-0.701l1.52,0l0,1.403l1.403,0l0,-1.403l2.221,0l3.742,-0.819l0,-0.701l-5.963,-2.222l0,-1.52l0.818,0c0.468,0 0.702,0.273 0.702,0.818l1.403,-0.818l11.108,0c2.729,0 6.198,0.273 10.407,0.818c0.702,-0.545 2.183,-0.818 4.443,-0.818l1.403,0.818c2.573,-1.013 4.327,-1.52 5.262,-1.52l-0.818,-1.403l0,-0.818l5.262,0l0,0.818l-1.521,2.105l8.185,0l0,-1.403l-2.221,0l0,-1.52l4.443,0l0,0.818l-0.818,1.403l3.741,0.702l0.702,0c1.013,0 1.52,-0.468 1.52,-1.403l-1.52,0l0,-1.52c4.131,0 8.341,-5.184 12.628,-15.552c15.123,-29.076 25.959,-47.317 32.507,-54.723Zm76.12,15.552c-1.948,4.131 -2.923,6.353 -2.923,6.665l0,0.701l0.702,0c0,-0.623 1.013,-3.079 3.04,-7.366l-0.819,0Zm-73.899,5.963c0,1.014 -1.481,3.703 -4.443,8.068l-1.52,4.444c0.623,0 2.845,-3.703 6.665,-11.109l0,-1.403l-0.702,0Zm69.456,2.222c0,0.468 -0.234,1.208 -0.701,2.222l0,0.701l0.701,0c0,-0.546 0.273,-1.286 0.819,-2.221l0,-0.702l-0.819,0Zm11.108,2.923l0,0.702l0.819,0l0.701,-2.923c-1.013,0 -1.52,0.74 -1.52,2.221Zm-22.918,11.108l0,0.702l0.819,0c0,-0.78 0.468,-1.754 1.403,-2.923l0,-0.702c-0.702,0 -1.442,0.975 -2.222,2.923Zm8.185,7.367c0,0.546 -0.234,1.286 -0.701,2.222l0,0.701l0.701,0c0,-0.468 0.234,-1.208 0.702,-2.221l0,-0.702l-0.702,0Zm-17.071,11.81l0,0.818l0.818,0c2.417,-4.521 3.625,-7.249 3.625,-8.185c-0.702,0.078 -2.183,2.534 -4.443,7.367Zm4.443,0.818c1.169,0 1.91,-1.247 2.222,-3.741c-1.092,0 -1.832,1.247 -2.222,3.741Zm5.963,0.702c0,0.779 -0.506,1.754 -1.52,2.923l0,0.819c0.78,0 1.52,-1.014 2.222,-3.041l0,-0.701l-0.702,0Zm-39.989,31.805l5.261,0l3.625,-0.702l0,-1.52c-5.924,0.234 -8.886,0.974 -8.886,2.222Zm-80.565,56.243l1.521,0l24.321,-51.099l0.818,-2.923c-1.169,0 -7.834,13.291 -19.995,39.873c-3.43,6.08 -5.651,10.797 -6.665,14.149Zm104.301,-42.212c-5.924,14.188 -8.886,21.593 -8.886,22.217c1.793,-1.871 4.989,-8.536 9.588,-19.995l0.701,-1.52l-1.403,-0.702Zm4.444,0c0,0.78 -0.507,1.754 -1.521,2.923l0,0.819l1.521,0l0.701,-3.04l0,-0.702l-0.701,0Zm-126.518,50.28c0,0.779 -0.974,2.767 -2.923,5.963l0,2.923l0.702,0c2.026,-4.521 3.04,-7.21 3.04,-8.068l0,-0.818l-0.819,0Zm101.378,12.628c1.481,0 2.962,-2.962 4.443,-8.887l-0.818,0c-0.936,0 -2.144,2.963 -3.625,8.887Zm-19.294,-3.04l0,0.818c-0.467,2.963 -1.208,4.444 -2.221,4.444l0,-0.819c0.545,-2.962 1.286,-4.443 2.221,-4.443Zm18.475,3.742l-5.145,11.809l0,1.52l0.702,0c0,-0.935 1.754,-4.872 5.262,-11.809l0,-1.52l-0.819,0Zm-21.398,2.923l0,0.818c-1.247,5.379 -2.494,8.068 -3.741,8.068l0,-1.403c1.637,-4.989 2.884,-7.483 3.741,-7.483Zm-8.886,41.393l1.52,0c7.873,-19.099 12.316,-30.675 13.33,-34.728c-2.339,3.586 -7.289,15.162 -14.85,34.728Zm3.741,-28.765l0,1.403c0,1.014 -0.506,1.52 -1.52,1.52l0,-1.52c0.156,-0.935 0.663,-1.403 1.52,-1.403Zm16.955,5.145c0,0.546 -0.234,1.286 -0.701,2.222l1.52,0l0,-2.222l-0.819,0Zm-21.398,6.665l0,1.52c0,0.935 -0.507,1.403 -1.52,1.403l0,-1.403c0.156,-1.013 0.663,-1.52 1.52,-1.52Z" style="fill:#fff;fill-rule:nonzero;"/><path d="M473.329,31.103c3.742,0 7.133,2.183 10.173,6.548l-6.548,0c-6.158,0 -14.149,1.949 -23.971,5.847l0,0.701l0.702,0c13.876,-0.935 24.087,-1.403 30.635,-1.403l1.404,0l0,1.403l-2.924,0c-0.467,0 -0.701,-0.234 -0.701,-0.701l-39.288,5.846c0,0.546 -2.417,1.247 -7.25,2.105l0,1.52l10.874,-2.222l0.702,0l0,1.403c-32.506,8.575 -48.759,14.889 -48.759,18.943c-15.825,13.252 -27.206,25.646 -34.144,37.183c-10.679,18.865 -16.019,33.403 -16.019,43.615c0,10.446 5.34,18.202 16.019,23.269c1.949,0.468 3.625,0.701 5.028,0.701c21.437,-8.496 37.456,-22.801 48.058,-42.913c2.962,-9.12 5.379,-20.033 7.25,-32.74l1.52,0l-1.52,13.798c1.481,0 2.728,-3.625 3.741,-10.875c-0.545,-1.87 -0.818,-3.819 -0.818,-5.846l0,-2.105l1.52,0c0.468,7.328 0.702,12.395 0.702,15.201c0,3.82 -1.209,10.368 -3.625,19.644c2.728,-2.416 5.885,-10.407 9.471,-23.97c1.637,-13.096 3.079,-19.644 4.326,-19.644c0,0.467 0.234,0.701 0.702,0.701c-0.468,0.468 -0.935,3.391 -1.403,8.77l0,0.701l0.701,0c1.949,-5.456 3.157,-11.537 3.625,-18.24c-0.935,-1.949 -1.403,-3.391 -1.403,-4.327l1.403,-0.701c1.403,0 2.884,3.858 4.443,11.576c0,19.254 -8.029,44.004 -24.087,74.25c-12.628,18.552 -28.648,30.674 -48.058,36.364c-8.497,2.963 -16.721,4.444 -24.672,4.444c-19.41,-5.379 -29.115,-19.956 -29.115,-43.732c0,-27.049 10.913,-51.526 32.74,-73.431c7.094,-7.795 21.905,-18.943 44.433,-33.442c24.945,-12.161 49.656,-18.241 74.133,-18.241Zm-35.663,11.693l0,0.702c4.053,0 6.236,0.233 6.548,0.701c4.053,-1.949 6.509,-2.923 7.366,-2.923l0,-1.403l-13.914,2.923Zm-91.673,57.412c10.68,-10.056 19.177,-18.552 25.491,-25.49c5.846,-3.508 8.77,-6.392 8.77,-8.653c-9.9,5.768 -20.58,15.941 -32.039,30.518c-1.481,1.17 -2.222,2.378 -2.222,3.625Zm1.52,37.184c0.546,0 2.963,-5.34 7.25,-16.02c5.223,-11.926 16.136,-26.504 32.74,-43.731l0,-0.702c-16.37,12.161 -25.335,21.866 -26.894,29.116c-4.365,4.989 -8.73,15.434 -13.096,31.337Zm-8.769,-17.54l0,0.702l0.701,0c10.68,-14.811 16.02,-23.269 16.02,-25.374c-6.938,5.925 -12.512,14.149 -16.721,24.672Zm95.297,5.847l0,0.701l0.818,0c5.301,-15.356 7.952,-25.295 7.952,-29.817c-3.196,5.379 -6.12,15.084 -8.77,29.116Zm-90.971,-22.568l0,0.702c1.013,0 1.52,-0.468 1.52,-1.403l0,-0.702c-1.013,0.156 -1.52,0.624 -1.52,1.403Zm-5.729,8.77c-7.328,16.916 -10.992,29.271 -10.992,37.067c1.014,15.434 2.729,25.373 5.145,29.817l0.702,0l0,-1.404c-1.481,-3.118 -2.222,-8.224 -2.222,-15.317c0,-7.796 0.741,-16.526 2.222,-26.192l-0.702,-1.404c1.481,-6.392 3.664,-13.68 6.548,-21.865l0,-0.702l-0.701,0Zm7.951,30.519l0,0.701c1.013,0 1.52,-0.467 1.52,-1.403l0,-0.701c-1.014,0.155 -1.52,0.623 -1.52,1.403Zm72.028,4.326l0,0.819l0.702,0c1.948,-3.274 2.923,-5.223 2.923,-5.847c-1.169,0.234 -2.378,1.91 -3.625,5.028Zm-79.278,-4.326c-1.481,4.365 -2.689,9.237 -3.625,14.616c0.936,9.9 2.378,17.149 4.327,21.749l0.701,0l0,-1.404c-1.403,-6.47 -2.104,-10.601 -2.104,-12.394l0.701,-1.403c-0.468,-0.858 -0.701,-1.832 -0.701,-2.923c0,-1.092 0.233,-2.066 0.701,-2.924c-0.468,-0.935 -0.701,-1.676 -0.701,-2.221c0.935,-7.718 1.403,-11.849 1.403,-12.395l0,-0.701l-0.702,0Zm54.606,27.712l0,0.701c1.559,0 6.626,-5.105 15.201,-15.317l0,-0.702l-0.702,0c-9.666,9.043 -14.499,14.149 -14.499,15.318Zm20.346,-5.847c0,0.624 -4.6,5.457 -13.798,14.5l0.702,0c6.47,-5.769 11.069,-10.368 13.797,-13.798l0.702,0l0,-0.702l-1.403,0Zm-69.105,10.875l0,0.701c0.935,4.911 3.352,7.367 7.249,7.367l2.222,0l0,-0.819l-9.471,-7.249Zm14.499,11.693l8.769,0l3.625,-0.819l0,-0.701l-10.874,0c-1.014,0.156 -1.52,0.662 -1.52,1.52Zm-13.096,-0.819l0,0.819c1.949,2.416 4.131,3.625 6.548,3.625l1.52,0l0,-0.702c-0.702,0 -3.391,-1.247 -8.068,-3.742Z" style="fill:#fff;fill-rule:nonzero;"/><path d="M626.389,2.456l2.69,0.701c3.819,-0.468 7.132,-0.701 9.939,-0.701l1.286,0c0.935,0 1.403,0.662 1.403,1.987l17.89,0c2.573,0 6.119,0.234 10.641,0.702l1.403,-0.702l3.975,0.702c2.105,0 4.327,-0.234 6.665,-0.702l2.69,0.702c2.884,-0.468 5.768,-0.702 8.653,-0.702l0.584,0c1.014,0 1.91,0.234 2.69,0.702c0.857,-0.468 1.52,-0.702 1.987,-0.702l0,0.702l1.287,-0.702l3.391,0c1.481,0 2.572,0.234 3.274,0.702l4.092,-0.702l3.274,0l3.274,0.702l0,1.286l-23.269,0c-2.65,1.403 -3.975,2.495 -3.975,3.274l5.378,1.403l0,1.286l-4.677,0c-4.911,1.56 -7.366,2.69 -7.366,3.391l1.403,0l0,1.988l-0.702,0c-0.467,0 -0.701,-0.234 -0.701,-0.701l-1.287,0.701l-10.64,0c-4.132,1.325 -10.797,1.988 -19.995,1.988l-1.286,0c0.156,0.858 0.584,1.286 1.286,1.286l7.951,0c3.118,0.156 4.677,0.624 4.677,1.403c0.468,0 0.702,-0.233 0.702,-0.701l7.951,0.701l1.988,0l0,1.287l-15.318,0c-1.793,0 -4.209,0.233 -7.249,0.701l-1.404,-0.701c-4.521,0.467 -8.068,0.701 -10.64,0.701l-5.963,0c-1.014,0 -1.91,0.195 -2.69,0.585c-0.39,0 -0.585,-0.195 -0.585,-0.585c-8.964,0.39 -25.178,0.819 -48.642,1.286c-0.858,0.468 -1.52,0.702 -1.988,0.702c-0.701,-0.468 -1.793,-0.702 -3.274,-0.702l-1.286,0l-4.093,0.702c-0.389,0 -0.584,-0.234 -0.584,-0.702l-4.677,0.702l-14.617,0c-1.013,0 -1.909,0.195 -2.689,0.585l-1.286,-0.585c-3.586,0 -7.367,5.535 -11.342,16.604c-3.976,5.69 -17.306,33.403 -39.99,83.137c0,0.545 -1.988,5.222 -5.963,14.031c0,2.495 -2.417,6.899 -7.25,13.213l0.585,1.403c-1.404,0.78 -2.729,4.327 -3.976,10.641l-0.585,0l0,-1.403l-0.701,0l0,2.689c-0.858,0 -1.286,1.793 -1.286,5.379l-0.702,0l-1.403,-0.702l-11.927,25.958c-0.857,2.027 -1.754,3.118 -2.689,3.274l-0.585,0c-0.935,0 -1.403,-0.428 -1.403,-1.286l7.951,-13.914l0,-2.105c-0.468,0 -1.13,-0.195 -1.988,-0.585c-4.521,10.524 -8.068,16.721 -10.64,18.592l-0.585,0c-0.935,0 -1.403,-0.429 -1.403,-1.286l-3.274,0.584l-1.403,0l0,-2.572l1.403,0.585l1.286,-2.573l-0.584,-3.391l2.572,-6.665c-1.091,0 -1.754,-0.896 -1.988,-2.689c16.448,-37.885 27.089,-62.051 31.922,-72.496c0,-1.014 9.783,-22.529 29.349,-64.545c0,-2.573 2.65,-8.341 7.951,-17.306c0,-0.701 -1.13,-1.364 -3.391,-1.987l-25.256,1.403l-1.287,-0.702c-13.096,0.858 -37.924,1.988 -74.483,3.391l-0.702,-1.403c0.156,-0.857 0.585,-1.286 1.286,-1.286l3.391,0c2.183,0 5.496,-0.234 9.939,-0.702l0,-1.286c0,-3.352 -3.313,-5.807 -9.939,-7.367l0,-1.987c10.68,-1.793 20.891,-2.69 30.636,-2.69l0,-1.286c-2.261,0 -3.391,-0.429 -3.391,-1.286l0,-1.403l9.354,0c1.013,0 1.91,-0.234 2.689,-0.702c0.702,0.468 1.559,0.702 2.573,0.702l1.988,0l0,-0.702l-6.665,-0.585l-1.988,0c-1.325,0 -1.988,0.195 -1.988,0.585l-3.274,-0.585l-5.379,0c-10.757,0.858 -16.721,1.287 -17.89,1.287l-1.403,-1.988c1.403,-1.325 5.613,-1.988 12.628,-1.988l41.978,0c1.013,0 1.91,-0.234 2.689,-0.701l1.286,0.701c17.384,-0.468 27.128,-0.896 29.233,-1.286c0.467,0 1.13,0.195 1.988,0.585c8.029,-0.39 20.891,-0.819 38.586,-1.287c0.156,-0.857 0.624,-1.286 1.403,-1.286l0.585,0l2.105,1.286l2.572,0c2.573,0 4.132,0.234 4.677,0.702c2.339,-0.468 4.56,-0.702 6.665,-0.702c6.86,0 17.501,-0.234 31.922,-0.701l1.403,-0.585c0.857,0.39 1.52,0.585 1.988,0.585c0.39,0 0.584,-0.195 0.584,-0.585l2.69,0.585c4.911,0 10.679,-0.429 17.305,-1.286Zm-162.297,6.664l0,1.287c0.857,-0.468 1.52,-0.702 1.987,-0.702l0,-0.585l-1.987,0Zm57.178,1.287l-11.927,0c-1.013,0 -1.91,0.234 -2.689,0.701c-0.468,0 -0.702,-0.234 -0.702,-0.701c-10.056,0.467 -18.241,1.13 -24.555,1.987l0,-0.584l-1.403,0.584l-6.665,0l0.702,1.404l3.391,-0.702c8.886,0 25.958,-0.663 51.215,-1.988l0.584,-1.403l-7.951,0.702Zm-97.168,9.354c0.468,0 1.13,0.234 1.988,0.702c0.857,-0.468 1.52,-0.702 1.988,-0.702l0,0.702c3.819,-1.404 6.509,-2.105 8.068,-2.105l0,-0.585l-3.976,0c-5.379,0.234 -8.068,0.897 -8.068,1.988Zm216.903,0.702l0,0.584l5.964,0l0,-0.584l-5.964,0Zm-142.302,3.975l-33.325,0c-2.884,0 -11.732,0.663 -26.543,1.988c0.078,0.857 0.507,1.286 1.286,1.286l1.988,0c4.443,0 9.978,-0.234 16.604,-0.701l2.689,0.701c3.664,-0.779 9.861,-1.442 18.592,-1.988l4.677,0.702c6.392,-0.468 9.939,-0.935 10.641,-1.403c0.779,0.468 1.676,0.701 2.689,0.701l1.286,-0.701c0.468,0 0.702,0.234 0.702,0.701c0.468,0 1.13,-0.233 1.988,-0.701l4.677,0.701c3.742,-0.467 6.821,-0.701 9.237,-0.701l0,-0.585l-2.572,-0.701c-1.014,0 -1.91,0.233 -2.69,0.701c-2.416,-0.468 -4.404,-0.701 -5.963,-0.701c-0.468,0 -1.13,0.233 -1.988,0.701c-0.467,0 -0.701,-0.234 -0.701,-0.701l-3.274,0.701Zm39.171,5.262c-1.091,3.274 -2.183,5.73 -3.274,7.367l0,1.286c1.481,0 3.04,-2.884 4.677,-8.653l-1.403,0Zm-4.677,11.342c0,0.468 -0.195,1.13 -0.585,1.988l0,0.701l0.585,0c0,-0.467 0.234,-1.13 0.701,-1.987l0,-0.702l-0.701,0Zm-2.573,5.262l0,1.403l1.287,0c0,-1.013 0.233,-1.91 0.701,-2.689l-0.701,0c-0.858,0.156 -1.287,0.584 -1.287,1.286Zm-6.665,14.031c0,1.014 -0.233,1.91 -0.701,2.69l1.286,0l0,-2.69l-0.585,0Zm-8.068,16.604c0,1.014 -0.195,1.91 -0.584,2.69l0.584,0c0.936,0 1.403,-0.429 1.403,-1.286c0,-0.936 -0.467,-1.404 -1.403,-1.404Zm-8.536,19.294l0,1.987c0.858,0 1.287,-0.428 1.287,-1.286l0,-0.701l-1.287,0Zm-2.104,4.677l-0.585,2.689c0.858,0 1.286,-0.662 1.286,-1.988l0,-0.701l-0.701,0Zm-37.184,74.484l-0.701,3.975c0.779,0 1.442,-1.325 1.988,-3.975l-1.287,0Zm4.677,3.975l1.287,0l-0.702,3.391l-1.286,0l0.701,-3.391Z" style="fill:#fff;fill-rule:nonzero;"/><path d="M691.87,2.456l2.689,0.701c3.82,-0.468 7.133,-0.701 9.939,-0.701l1.286,0c0.936,0 1.403,0.662 1.403,1.987l17.891,0c2.572,0 6.119,0.234 10.64,0.702l1.403,-0.702l3.976,0.702c2.105,0 4.326,-0.234 6.665,-0.702l2.689,0.702c2.884,-0.468 5.769,-0.702 8.653,-0.702l0.585,0c1.013,0 1.909,0.234 2.689,0.702c0.857,-0.468 1.52,-0.702 1.988,-0.702l0,0.702l1.286,-0.702l3.391,0c1.481,0 2.572,0.234 3.274,0.702l4.092,-0.702l3.274,0l3.274,0.702l0,1.286l-23.268,0c-2.651,1.403 -3.976,2.495 -3.976,3.274l5.379,1.403l0,1.286l-4.677,0c-4.912,1.56 -7.367,2.69 -7.367,3.391l1.403,0l0,1.988l-0.701,0c-0.468,0 -0.702,-0.234 -0.702,-0.701l-1.286,0.701l-10.641,0c-4.131,1.325 -10.796,1.988 -19.995,1.988l-1.286,0c0.156,0.858 0.585,1.286 1.286,1.286l7.952,0c3.118,0.156 4.677,0.624 4.677,1.403c0.467,0 0.701,-0.233 0.701,-0.701l7.951,0.701l1.988,0l0,1.287l-15.317,0c-1.793,0 -4.21,0.233 -7.25,0.701l-1.403,-0.701c-4.522,0.467 -8.068,0.701 -10.641,0.701l-5.963,0c-1.014,0 -1.91,0.195 -2.69,0.585c-0.389,0 -0.584,-0.195 -0.584,-0.585c-8.965,0.39 -25.179,0.819 -48.643,1.286c-0.857,0.468 -1.52,0.702 -1.988,0.702c-0.701,-0.468 -1.792,-0.702 -3.274,-0.702l-1.286,0l-4.092,0.702c-0.39,0 -0.585,-0.234 -0.585,-0.702l-4.677,0.702l-14.616,0c-1.014,0 -1.91,0.195 -2.69,0.585l-1.286,-0.585c-3.586,0 -7.366,5.535 -11.342,16.604c-3.976,5.69 -17.305,33.403 -39.99,83.137c0,0.545 -1.987,5.222 -5.963,14.031c0,2.495 -2.417,6.899 -7.25,13.213l0.585,1.403c-1.403,0.78 -2.728,4.327 -3.976,10.641l-0.584,0l0,-1.403l-0.702,0l0,2.689c-0.857,0 -1.286,1.793 -1.286,5.379l-0.702,0l-1.403,-0.702l-11.927,25.958c-0.857,2.027 -1.754,3.118 -2.689,3.274l-0.585,0c-0.935,0 -1.403,-0.428 -1.403,-1.286l7.951,-13.914l0,-2.105c-0.467,0 -1.13,-0.195 -1.987,-0.585c-4.522,10.524 -8.068,16.721 -10.641,18.592l-0.585,0c-0.935,0 -1.403,-0.429 -1.403,-1.286l-3.274,0.584l-1.403,0l0,-2.572l1.403,0.585l1.287,-2.573l-0.585,-3.391l2.572,-6.665c-1.091,0 -1.754,-0.896 -1.987,-2.689c16.448,-37.885 27.088,-62.051 31.921,-72.496c0,-1.014 9.783,-22.529 29.349,-64.545c0,-2.573 2.651,-8.341 7.952,-17.306c0,-0.701 -1.131,-1.364 -3.391,-1.987l-25.257,1.403l-1.286,-0.702c-13.096,0.858 -37.924,1.988 -74.484,3.391l-0.702,-1.403c0.156,-0.857 0.585,-1.286 1.286,-1.286l3.391,0c2.183,0 5.496,-0.234 9.939,-0.702l0,-1.286c0,-3.352 -3.313,-5.807 -9.939,-7.367l0,-1.987c10.68,-1.793 20.892,-2.69 30.636,-2.69l0,-1.286c-2.261,0 -3.391,-0.429 -3.391,-1.286l0,-1.403l9.354,0c1.014,0 1.91,-0.234 2.69,-0.702c0.701,0.468 1.559,0.702 2.572,0.702l1.988,0l0,-0.702l-6.665,-0.585l-1.988,0c-1.325,0 -1.988,0.195 -1.988,0.585l-3.274,-0.585l-5.378,0c-10.758,0.858 -16.721,1.287 -17.891,1.287l-1.403,-1.988c1.403,-1.325 5.613,-1.988 12.629,-1.988l41.977,0c1.014,0 1.91,-0.234 2.69,-0.701l1.286,0.701c17.383,-0.468 27.127,-0.896 29.232,-1.286c0.468,0 1.13,0.195 1.988,0.585c8.029,-0.39 20.891,-0.819 38.586,-1.287c0.156,-0.857 0.624,-1.286 1.404,-1.286l0.584,0l2.105,1.286l2.572,0c2.573,0 4.132,0.234 4.678,0.702c2.338,-0.468 4.56,-0.702 6.665,-0.702c6.859,0 17.5,-0.234 31.921,-0.701l1.403,-0.585c0.858,0.39 1.52,0.585 1.988,0.585c0.39,0 0.585,-0.195 0.585,-0.585l2.689,0.585c4.911,0 10.68,-0.429 17.306,-1.286Zm-162.298,6.664l0,1.287c0.857,-0.468 1.52,-0.702 1.988,-0.702l0,-0.585l-1.988,0Zm57.178,1.287l-11.926,0c-1.014,0 -1.91,0.234 -2.69,0.701c-0.468,0 -0.701,-0.234 -0.701,-0.701c-10.056,0.467 -18.241,1.13 -24.555,1.987l0,-0.584l-1.404,0.584l-6.665,0l0.702,1.404l3.391,-0.702c8.887,0 25.958,-0.663 51.215,-1.988l0.585,-1.403l-7.952,0.702Zm-97.168,9.354c0.468,0 1.131,0.234 1.988,0.702c0.858,-0.468 1.52,-0.702 1.988,-0.702l0,0.702c3.82,-1.404 6.509,-2.105 8.068,-2.105l0,-0.585l-3.976,0c-5.378,0.234 -8.068,0.897 -8.068,1.988Zm216.904,0.702l0,0.584l5.963,0l0,-0.584l-5.963,0Zm-142.303,3.975l-33.325,0c-2.884,0 -11.732,0.663 -26.543,1.988c0.078,0.857 0.507,1.286 1.287,1.286l1.987,0c4.444,0 9.978,-0.234 16.604,-0.701l2.69,0.701c3.663,-0.779 9.861,-1.442 18.591,-1.988l4.678,0.702c6.392,-0.468 9.939,-0.935 10.64,-1.403c0.78,0.468 1.676,0.701 2.689,0.701l1.287,-0.701c0.467,0 0.701,0.234 0.701,0.701c0.468,0 1.131,-0.233 1.988,-0.701l4.677,0.701c3.742,-0.467 6.821,-0.701 9.238,-0.701l0,-0.585l-2.573,-0.701c-1.013,0 -1.91,0.233 -2.689,0.701c-2.417,-0.468 -4.405,-0.701 -5.964,-0.701c-0.467,0 -1.13,0.233 -1.987,0.701c-0.468,0 -0.702,-0.234 -0.702,-0.701l-3.274,0.701Zm39.171,5.262c-1.091,3.274 -2.182,5.73 -3.274,7.367l0,1.286c1.481,0 3.04,-2.884 4.677,-8.653l-1.403,0Zm-4.677,11.342c0,0.468 -0.195,1.13 -0.585,1.988l0,0.701l0.585,0c0,-0.467 0.234,-1.13 0.702,-1.987l0,-0.702l-0.702,0Zm-2.572,5.262l0,1.403l1.286,0c0,-1.013 0.234,-1.91 0.701,-2.689l-0.701,0c-0.858,0.156 -1.286,0.584 -1.286,1.286Zm-6.665,14.031c0,1.014 -0.234,1.91 -0.702,2.69l1.286,0l0,-2.69l-0.584,0Zm-8.068,16.604c0,1.014 -0.195,1.91 -0.585,2.69l0.585,0c0.935,0 1.403,-0.429 1.403,-1.286c0,-0.936 -0.468,-1.404 -1.403,-1.404Zm-8.536,19.294l0,1.987c0.857,0 1.286,-0.428 1.286,-1.286l0,-0.701l-1.286,0Zm-2.105,4.677l-0.585,2.689c0.858,0 1.287,-0.662 1.287,-1.988l0,-0.701l-0.702,0Zm-37.183,74.484l-0.702,3.975c0.78,0 1.442,-1.325 1.988,-3.975l-1.286,0Zm4.677,3.975l1.286,0l-0.702,3.391l-1.286,0l0.702,-3.391Z" style="fill:#fff;fill-rule:nonzero;"/><path d="M712.449,32.506l0.585,0l0,0.585c0,0.234 -0.195,1.13 -0.585,2.689c1.325,2.885 2.845,5.262 4.56,7.133l0,0.702c-3.274,9.978 -7.834,21.281 -13.68,33.909l-19.644,42.445c3.04,1.715 4.56,2.807 4.56,3.274c-1.014,0.936 -2.534,1.403 -4.56,1.403l0,0.585l0.701,1.286c-4.911,1.871 -8.185,5.379 -9.822,10.524c-29.778,55.892 -51.332,92.881 -64.662,110.966l-0.701,0l0,-5.145c5.846,-8.887 12.394,-21.32 19.644,-37.301l3.274,-5.144l0,-1.404c-1.403,0 -4.677,5.028 -9.822,15.084c-1.169,0.936 -3.586,5.301 -7.25,13.096c-0.468,0 -2.611,3.898 -6.431,11.693c-1.559,0 -2.65,1.754 -3.274,5.262c-1.169,2.183 -2.261,3.274 -3.274,3.274l-3.274,-0.702l0,1.988c-0.468,0 -0.702,-0.234 -0.702,-0.701l-1.286,0.701c-0.857,-0.467 -1.52,-0.701 -1.988,-0.701c5.769,-14.032 12.512,-27.089 20.229,-39.172l13.096,-24.087c0,-0.935 2.846,-6.392 8.536,-16.37c0,-0.78 2.183,-4.911 6.548,-12.395c6.938,-12.472 10.407,-20.54 10.407,-24.204l-0.702,0c-22.138,0 -33.208,1.52 -33.208,4.56c-25.412,21.905 -44.355,37.379 -56.827,46.421l-0.702,0l0,-0.701c0.468,-1.715 1.325,-2.573 2.573,-2.573l0,-0.701c-0.702,0 -1.988,-0.429 -3.859,-1.287c0,1.404 -1.091,2.729 -3.274,3.976l-1.286,0l0,-0.702c0,-0.467 0.195,-0.701 0.584,-0.701l-0.584,-1.286l0,-1.287l1.871,-3.858l-3.274,0.584l-0.585,0l5.262,-9.822l7.834,-6.548l23.503,-21.515l0,-1.987c-1.014,0 -1.91,-0.195 -2.69,-0.585c-0.389,0 -0.584,0.195 -0.584,0.585l-3.274,-0.585l-9.822,0c-2.417,0 -5.457,-0.234 -9.121,-0.702c-0.467,0 -0.701,0.234 -0.701,0.702c-0.312,0 -1.598,-0.234 -3.859,-0.702c-33.987,0 -50.981,-1.286 -50.981,-3.858c4.053,-3.508 7.756,-5.262 11.108,-5.262l0,0.701c0.546,-0.467 2.066,-0.701 4.56,-0.701l0,-0.702l-1.987,0l0,-1.286l0.701,0c3.43,0 11.498,-0.195 24.205,-0.585l0.584,-1.403l-3.274,-0.584l-7.133,0l0,-1.287c0.234,0 2.417,-0.662 6.549,-1.987l1.286,0.701c0.234,0 1.091,-0.234 2.572,-0.701l1.286,0.701l1.404,-0.701c0.857,0 1.286,0.233 1.286,0.701l6.548,-0.701l14.265,0l0,1.987l1.403,0c0.858,0 1.287,-0.662 1.287,-1.987l0.584,0c0,1.325 1.559,1.987 4.677,1.987l5.145,0c1.481,0 2.573,-0.233 3.274,-0.701l3.976,0.701l7.834,0l4.56,-0.701l0,-0.585l-1.987,0l0,-0.701c0.155,-0.858 0.584,-1.287 1.286,-1.287l5.262,0c4.989,0 9.12,-1.754 12.394,-5.261c0,0.467 0.234,0.701 0.702,0.701c0,-1.169 0.857,-2.066 2.572,-2.689c0,-1.325 3.469,-4.366 10.407,-9.121c0.857,-1.793 10.017,-9.627 27.478,-23.502c23.308,-19.8 39.21,-33.949 47.707,-42.446Zm-37.3,55.542c-16.058,14.109 -24.088,21.515 -24.088,22.216l0,1.871c0.702,0.468 1.559,0.702 2.573,0.702l1.988,0l4.56,-0.702l0,0.702c4.989,0 8.692,-3.937 11.108,-11.81c3.508,-5.769 5.262,-9.9 5.262,-12.395l-1.403,-0.584Zm-29.349,28.063c1.715,0 2.572,0.233 2.572,0.701c0.857,-0.468 1.52,-0.701 1.988,-0.701c0.779,0 4.716,-0.234 11.81,-0.702l0,-1.286l-1.404,0c-9.977,0 -14.966,0.662 -14.966,1.988Zm-59.4,-0.702l6.431,0l0,1.403l-6.431,0l0,-1.403Zm22.216,0.702l0,0.701l3.157,0.585l0,-1.286l-3.157,0Zm-58.231,3.858l0,0.702l4.561,0l0,-0.702l-4.561,0Zm-5.846,6.548l0,1.287l2.572,0l0,-0.585l-2.572,-0.702Zm3.976,0.702l0,0.585l7.132,0l0,-0.585l-7.132,0Zm7.834,0l0,1.286l19.527,0l0,-0.701c-6.158,0 -12.667,-0.195 -19.527,-0.585Zm82.318,1.286l-9.238,0c0.156,0.858 0.624,1.286 1.404,1.286l1.286,0c1.559,0 3.508,-0.195 5.846,-0.584l1.287,0.584c0.701,-0.389 1.792,-0.584 3.274,-0.584l-0.702,-1.403l-3.157,0.701Zm7.834,0l0,0.702c2.105,-0.468 4.911,-0.702 8.419,-0.702l0,-0.701l-6.548,0c-0.78,0.467 -1.403,0.701 -1.871,0.701Zm-86.294,2.573l0,0.701c5.145,0 9.277,0.234 12.395,0.702c1.715,-0.468 3.235,-0.702 4.56,-0.702l0,-1.286l-10.407,0l-6.548,0.585Zm20.229,0c0.156,0.935 0.624,1.403 1.403,1.403l1.871,0c0,-0.936 -0.429,-1.403 -1.286,-1.403l-1.988,0Zm-26.075,43.146l0,0.702c0,0.857 -0.429,1.286 -1.286,1.286l0,-0.701c0.078,-0.858 0.506,-1.287 1.286,-1.287Zm0,12.395l1.286,0l0,0.701c0,0.858 -0.429,1.287 -1.286,1.287c-0.857,0 -1.286,-0.429 -1.286,-1.287l1.286,-0.701Zm47.005,54.255c0,0.468 -0.194,1.13 -0.584,1.988l2.572,0l0,-0.702c0,-0.857 -0.428,-1.286 -1.286,-1.286l-0.702,0Z" style="fill:#fff;fill-rule:nonzero;"/><path d="M814.528,32.156l1.403,0l0,1.286c-5.222,1.403 -15.863,5.262 -31.921,11.576l0,0.701l1.286,0c5.457,-0.935 8.653,-1.403 9.588,-1.403l0.702,1.403c-15.825,6.782 -24.438,10.173 -25.842,10.173l0,1.403l1.988,0c1.092,-0.935 4.716,-2.065 10.875,-3.391l0,0.702c-0.546,0.624 -10.524,5.379 -29.934,14.265c-14.344,6.86 -22.723,11.615 -25.14,14.266l0,0.584c0.156,1.247 1.286,2.378 3.391,3.391c13.408,-2.65 23.152,-3.975 29.232,-3.975l4.794,0c3.82,0 6.782,0.428 8.887,1.286c0.779,-0.468 1.676,-0.702 2.689,-0.702l2.69,0c0,2.261 3.391,3.391 10.173,3.391l0.701,1.403c-0.857,0.468 -1.52,0.702 -1.988,0.702c0,0.935 2.495,2.728 7.484,5.379l1.286,4.794l0,4.794c-1.715,6.704 -8.731,15.318 -21.047,25.841c-0.936,0 -9.082,6.782 -24.438,20.346c-16.215,15.434 -27.089,24.945 -32.624,28.531l0,-0.702l1.988,-2.689l0,-0.702l-11.576,8.887l0,1.286c2.806,-2.261 4.872,-3.391 6.197,-3.391c-14.967,12.239 -27.868,21.554 -38.703,27.946l-1.403,-0.702c-3.82,2.573 -7.679,4.6 -11.576,6.081c-3.976,-1.949 -6.003,-3.313 -6.081,-4.093c9.9,-7.951 14.889,-12.238 14.967,-12.862l0,-2.105l-0.701,0c-2.339,0 -6.86,2.729 -13.564,8.185c-0.935,0 -1.403,-0.467 -1.403,-1.403c18.085,-14.421 40.964,-32.077 68.637,-52.969c17.072,-14.343 30.87,-26.582 41.393,-36.715l1.403,-6.081l0,-1.403c0,-0.935 -1.598,-2.066 -4.794,-3.391c-10.368,0 -23.931,3.196 -40.691,9.588l-0.702,0l0,-1.403c1.871,0 3.898,-1.13 6.081,-3.391l0,-0.701c-5.847,0.935 -9.706,1.403 -11.576,1.403c-1.248,-0.078 -2.378,-1.442 -3.391,-4.093c-3.118,0 -6.743,-2.494 -10.875,-7.483c0,-14.967 12.005,-28.102 36.014,-39.405c1.482,-1.949 11.459,-6.938 29.934,-14.967c19.099,-6.314 34.494,-9.471 46.187,-9.471Zm-73.314,38.703l1.286,0c0.857,0 9.705,-4.092 26.543,-12.278l0,-1.286c-3.196,0 -12.473,4.522 -27.829,13.564Zm-23.152,15.669l0,1.987l1.988,0l0,-0.701c0,-0.858 -0.429,-1.286 -1.287,-1.286l-0.701,0Zm-6.081,5.378l0,2.69c0.156,0.935 1.287,1.871 3.391,2.806l0,-0.702c-1.403,-1.948 -2.104,-3.546 -2.104,-4.794l-1.287,0Zm6.081,0l0,0.702c2.572,3.196 5.534,4.794 8.886,4.794l0.585,0l0,-1.403c-4.365,-2.729 -7.055,-4.093 -8.068,-4.093l-1.403,0Zm63.258,2.105l-0.701,1.286c1.091,0 4.014,1.598 8.77,4.794l0,-0.701c0,-3.586 -2.495,-5.379 -7.484,-5.379l-0.585,0Zm-2.806,3.976l0,0.701c1.014,0 3.976,2.066 8.887,6.197l0.701,0l0,-1.403c-1.091,-2.26 -4.053,-4.092 -8.886,-5.495l-0.702,0Zm-1.988,7.483l0,1.403c0.156,0.936 0.585,1.403 1.287,1.403l0.701,0l0,-1.403c0,-0.935 -0.429,-1.403 -1.286,-1.403l-0.702,0Zm6.782,0.702l0,1.403c0.156,0.857 0.624,1.286 1.403,1.286l0,-1.286c0,-0.936 -0.467,-1.403 -1.403,-1.403Zm-108.042,85.592l0,1.403l3.391,0c13.174,-9.121 22.45,-16.136 27.829,-21.047l-0.702,0c-0.545,0 -10.484,6.548 -29.817,19.644l-0.701,0Zm-11.576,17.071c0.156,0.858 0.623,1.287 1.403,1.287c5.223,-1.326 21.281,-13.096 48.175,-35.313l-1.287,0c-10.835,7.172 -24.438,16.916 -40.808,29.232c-3.82,3.196 -6.314,4.794 -7.483,4.794Zm40.808,-21.047l0.702,0c2.026,-0.935 3.157,-1.871 3.39,-2.806l-0.701,0c-2.105,0.935 -3.235,1.871 -3.391,2.806Z" style="fill:#fff;fill-rule:nonzero;"/></g></svg>